<svg width="90" height="90" viewBox="0 0 90 90" fill="none" xmlns="http://www.w3.org/2000/svg"><path d="M20.9425 10.4175C38.235 10.4175 50.11 1.45996 58.4425 1.45996C66.775 1.45996 84.275 6.24996 84.275 44.5825C84.275 82.915 60.7325 88.54 51.5675 88.54C8.65 88.5425 -9.6825 10.4175 20.9425 10.4175Z" fill="#F0F2F5"/><path d="M15.0017 30.0312L18.5372 26.4957L20.305 28.2635L16.7695 31.799L15.0017 30.0312Z" fill="#B4BCC8"/><path d="M4.83569 40.1982L8.37123 36.6627L10.139 38.4305L6.60346 41.966L4.83569 40.1982Z" fill="#B4BCC8"/><path d="M4.83911 27.8242L6.60688 26.0565L10.1424 29.592L8.37465 31.3598L4.83911 27.8242Z" fill="#B4BCC8"/><path d="M72.0425 68.04C69.975 68.04 68.2925 66.3575 68.2925 64.29C68.2925 62.2225 69.975 60.54 72.0425 60.54C74.11 60.54 75.7925 62.2225 75.7925 64.29C75.7925 66.3575 74.1125 68.04 72.0425 68.04ZM72.0425 63.04C71.355 63.04 70.7925 63.6025 70.7925 64.29C70.7925 64.9775 71.355 65.54 72.0425 65.54C72.73 65.54 73.2925 64.9775 73.2925 64.29C73.2925 63.6025 72.7325 63.04 72.0425 63.04Z" fill="#B4BCC8"/><path d="M45.085 63.4675L27.735 73.125L30.9875 52.7825L16.875 38.4325L36.3 35.4025L44.9275 16.875L53.68 35.3425L73.125 38.2425L59.1125 52.6875L62.5 73.0075L45.085 63.4675Z" fill="#45A7F5"/><path d="M33.225 70.07L35.9875 52.7825L21.875 38.4325L41.3 35.4025L47.45 22.195L44.9275 16.875L36.3 35.4025L16.875 38.4325L30.9875 52.7825L27.735 73.125L33.225 70.07Z" fill="#000" fill-opacity=".15"/><path d="M50.0852 63.4678L47.6052 64.8478L62.5002 73.0078L61.9977 69.9928L50.0852 63.4678Z" fill="#00B871"/><path d="M27.7376 75C27.3601 75 26.9826 74.885 26.6626 74.66C26.0751 74.25 25.7726 73.5375 25.8851 72.83L28.9826 53.4225L15.5351 39.745C15.0451 39.245 14.8701 38.51 15.0926 37.8425C15.3126 37.1725 15.8876 36.6875 16.5851 36.5775L35.0201 33.7L43.2251 16.0825C43.5326 15.425 44.1951 15.0025 44.9201 15H44.9276C45.6526 15 46.3126 15.4175 46.6226 16.0725L54.9501 33.635L59.2401 34.275L58.6876 37.985L53.4076 37.1975C52.7876 37.105 52.2576 36.71 51.9901 36.145L44.9451 21.285L38.0026 36.1925C37.7401 36.76 37.2101 37.1575 36.5926 37.255L20.7776 39.7225L32.3301 51.47C32.7476 51.8925 32.9376 52.49 32.8426 53.08L30.2026 69.61L44.1776 61.83C44.7451 61.515 45.4251 61.5125 45.9926 61.8225L60.0201 69.51L57.2651 52.9975C57.1676 52.4125 57.3551 51.81 57.7701 51.3825L69.2401 39.56L63.7576 38.7425L64.3101 35.0325L73.4076 36.39C74.1026 36.495 74.6826 36.9775 74.9076 37.645C75.1351 38.3125 74.9676 39.0475 74.4776 39.5525L61.1226 53.3175L64.3576 72.705C64.4751 73.4125 64.1776 74.125 63.5926 74.54C63.0026 74.955 62.2301 75 61.6051 74.6575L45.0976 65.6125L28.6551 74.7675C28.3651 74.9225 28.0501 75 27.7376 75Z" fill="#212529"/></svg>