<svg width="90" height="90" viewBox="0 0 90 90" fill="none" xmlns="http://www.w3.org/2000/svg"><path d="M69.0571 10.4175C51.7646 10.4175 39.8896 1.45996 31.5571 1.45996C23.2246 1.45996 5.72461 6.24996 5.72461 44.5825C5.72461 82.915 29.2671 88.54 38.4321 88.54C81.3496 88.5425 99.6821 10.4175 69.0571 10.4175Z" fill="#F0F2F5"/><path d="M26.25 22.5C24.1825 22.5 22.5 20.8175 22.5 18.75C22.5 16.6825 24.1825 15 26.25 15C28.3175 15 30 16.6825 30 18.75C30 20.8175 28.3175 22.5 26.25 22.5ZM26.25 17.5C25.5625 17.5 25 18.06 25 18.75C25 19.44 25.5625 20 26.25 20C26.9375 20 27.5 19.44 27.5 18.75C27.5 18.06 26.9375 17.5 26.25 17.5Z" fill="#B4BCC8"/><path d="M66.7501 48.7002L61.3001 69.4502C60.9751 70.6252 60.2 71.7002 59.075 72.4002C57.875 73.1252 56.5251 73.2752 55.2751 72.9752L44.3 70.3002L66.7501 48.7002Z" fill="#45A7F5"/><path d="M70.7775 44.825C72.2225 43.4575 73.125 41.5225 73.125 39.375V21.875C73.125 19.1125 70.8875 16.875 68.125 16.875H50.625C48.48 16.875 46.5425 17.7775 45.175 19.22L18.2425 47.19C17.395 48.085 16.875 49.295 16.875 50.625C16.875 52.005 17.435 53.255 18.34 54.16L35.84 71.66C36.745 72.565 37.995 73.125 39.375 73.125C40.705 73.125 41.915 72.605 42.81 71.7575L70.7775 44.825Z" fill="#F3F7FD"/><path d="M62.5 30.625C64.2259 30.625 65.625 29.2259 65.625 27.5C65.625 25.7741 64.2259 24.375 62.5 24.375C60.7741 24.375 59.375 25.7741 59.375 27.5C59.375 29.2259 60.7741 30.625 62.5 30.625Z" fill="#2FDF84"/><path d="M41.465 71.66L23.965 54.16C23.06 53.255 22.5 52.005 22.5 50.625C22.5 49.295 23.02 48.085 23.8675 47.19L50.8 19.22C52.1675 17.775 54.1025 16.875 56.25 16.875H50.625C48.48 16.875 46.5425 17.7775 45.175 19.22L18.2425 47.19C17.395 48.085 16.875 49.295 16.875 50.625C16.875 52.005 17.435 53.255 18.34 54.16L35.84 71.66C36.745 72.565 37.995 73.125 39.375 73.125C40.4175 73.125 41.38 72.7975 42.18 72.2525C41.925 72.075 41.6825 71.88 41.465 71.66Z" fill="#B4BCC8" fill-opacity=".5"/><path d="M49.925 70.3002L64.8475 55.9427L66.7501 48.7002L44.3 70.3002L55.2751 72.9752C56.4626 73.2602 57.74 73.1227 58.8925 72.4852L49.925 70.3002Z" fill="#000" fill-opacity=".15"/><path d="M65 27.5C65 27.025 65.1225 26.5875 65.3125 26.185C64.8125 25.1225 63.75 24.375 62.5 24.375C60.775 24.375 59.375 25.775 59.375 27.5C59.375 29.225 60.775 30.625 62.5 30.625C63.75 30.625 64.8125 29.8775 65.3125 28.815C65.1225 28.4125 65 27.975 65 27.5Z" fill="#2F97EB"/><path d="M56.49 74.9951C55.94 74.9951 55.3875 74.9301 54.84 74.7976L43.855 72.1201L44.7425 68.4777L55.72 71.1526C56.3025 71.2927 57.195 71.3477 58.105 70.7952C58.7825 70.3752 59.28 69.7151 59.4925 68.9501L64.9375 48.2227L68.565 49.1752L63.1125 69.9251C62.6425 71.6251 61.5625 73.0601 60.0625 73.9926C58.9675 74.6551 57.74 74.9951 56.49 74.9951Z" fill="#212529"/><path d="M39.3752 75C37.5377 75 35.8077 74.285 34.5127 72.985L17.0152 55.485C15.7152 54.19 15.0002 52.4625 15.0002 50.625C15.0002 48.86 15.6677 47.1825 16.8802 45.9L43.8252 17.92C45.5752 16.07 48.0602 15 50.6252 15H68.1252C71.9178 15 75.0003 18.0825 75.0003 21.875V39.375C75.0003 41.9375 73.9328 44.4175 72.0728 46.18L44.1127 73.1075C42.8177 74.3325 41.1377 75 39.3752 75ZM50.6252 18.75C49.0627 18.75 47.6127 19.375 46.5377 20.51L19.5927 48.49C19.0527 49.06 18.7502 49.8225 18.7502 50.625C18.7502 51.46 19.0752 52.245 19.6652 52.8325L37.1652 70.3325C38.3227 71.49 40.3352 71.52 41.5202 70.3925L69.4777 43.475C69.4827 43.47 69.4877 43.4675 69.4902 43.4625C70.6252 42.39 71.2502 40.9375 71.2502 39.375V21.875C71.2502 20.1525 69.8477 18.75 68.1252 18.75H50.6252Z" fill="#212529"/><path d="M62.4998 32.5C59.7423 32.5 57.4998 30.2575 57.4998 27.5C57.4998 24.7425 59.7423 22.5 62.4998 22.5C65.2573 22.5 67.4998 24.7425 67.4998 27.5C67.4998 30.2575 65.2573 32.5 62.4998 32.5ZM62.4998 26.25C61.8123 26.25 61.2498 26.81 61.2498 27.5C61.2498 28.19 61.8123 28.75 62.4998 28.75C63.1873 28.75 63.7498 28.19 63.7498 27.5C63.7498 26.81 63.1873 26.25 62.4998 26.25Z" fill="#212529"/></svg>