<svg width="90" height="90" viewBox="0 0 90 90" fill="none" xmlns="http://www.w3.org/2000/svg"><path d="M87.2596 50.8873C77.8046 36.4098 78.8096 21.5698 74.2522 14.5923C69.6946 7.61476 56.1121 -4.41524 24.0196 16.5473C-8.07285 37.5098 0.0896463 60.2973 5.10465 67.9698C28.5746 103.9 104.007 76.5273 87.2596 50.8873Z" fill="#F0F2F5"/><path d="M16.7582 15.1084L20.2937 11.5729L22.0615 13.3406L18.5259 16.8762L16.7582 15.1084Z" fill="#B4BCC8"/><path d="M6.59375 25.2695L10.1293 21.734L11.897 23.5018L8.36152 27.0373L6.59375 25.2695Z" fill="#B4BCC8"/><path d="M6.59326 12.8975L8.36103 11.1297L11.8966 14.6652L10.1288 16.433L6.59326 12.8975Z" fill="#B4BCC8"/><path d="M81.1502 78.0098C79.0826 78.0098 77.4001 76.3273 77.4001 74.2598C77.4001 72.1923 79.0826 70.5098 81.1502 70.5098C83.2177 70.5098 84.9002 72.1923 84.9002 74.2598C84.9002 76.3273 83.2177 78.0098 81.1502 78.0098ZM81.1502 73.0098C80.4626 73.0098 79.9001 73.5723 79.9001 74.2598C79.9001 74.9473 80.4626 75.5098 81.1502 75.5098C81.8377 75.5098 82.4002 74.9473 82.4002 74.2598C82.4002 73.5723 81.8377 73.0098 81.1502 73.0098Z" fill="#B4BCC8"/><path d="M68.92 73.125H21.08C18.7575 73.125 16.875 71.2425 16.875 68.92V36.875H73.125V68.92C73.125 71.2425 71.2425 73.125 68.92 73.125Z" fill="#F3F7FD"/><path d="M21.875 68.92V36.875H16.875V68.92C16.875 71.2425 18.7575 73.125 21.08 73.125H26.08C23.7575 73.125 21.875 71.2425 21.875 68.92Z" fill="#B4BCC8" fill-opacity=".5"/><path d="M44.9829 58.1221C49.4702 58.1221 53.1079 54.4844 53.1079 49.9971C53.1079 45.5098 49.4702 41.8721 44.9829 41.8721C40.4956 41.8721 36.8579 45.5098 36.8579 49.9971C36.8579 54.4844 40.4956 58.1221 44.9829 58.1221Z" fill="#45A7F5"/><path d="M39.5324 56.0498L34.3749 64.8248L38.4074 64.5723L40.1899 68.1248L44.9949 59.9648L39.5324 56.0498Z" fill="#45A7F5"/><path d="M50.4528 56.0205L55.6253 64.8255L51.5928 64.573L49.8003 68.1255L44.9953 59.9655L43.8978 58.063L50.4528 56.0205Z" fill="#45A7F5"/><path d="M73.125 36.875H16.875V26.955C16.875 24.15 19.15 21.875 21.955 21.875H68.705C71.1475 21.875 73.1275 23.855 73.1275 26.2975V36.875H73.125Z" fill="#45A7F5"/><path d="M26.955 21.875H21.955C19.15 21.875 16.875 24.15 16.875 26.955V36.875H21.875V26.955C21.875 24.15 24.15 21.875 26.955 21.875Z" fill="#000" fill-opacity=".15"/><path d="M41.8579 49.9971C41.8579 46.3871 44.2279 43.3646 47.4829 42.3046C46.6904 42.0471 45.8604 41.8721 44.9829 41.8721C40.4954 41.8721 36.8579 45.5096 36.8579 49.9971C36.8579 54.4846 40.4954 58.1221 44.9829 58.1221C45.8604 58.1221 46.6904 57.9471 47.4829 57.6896C44.2279 56.6321 41.8579 53.6071 41.8579 49.9971Z" fill="#000" fill-opacity=".15"/><path d="M68.1252 75H21.8752C18.0827 75 15.0002 71.9175 15.0002 68.125V26.875C15.0002 23.0825 18.0827 20 21.8752 20H68.1252C71.9178 20 75.0003 23.0825 75.0003 26.875V68.125C75.0003 71.9175 71.9178 75 68.1252 75ZM21.8752 23.75C20.1527 23.75 18.7502 25.1525 18.7502 26.875V68.125C18.7502 69.8475 20.1527 71.25 21.8752 71.25H68.1252C69.8477 71.25 71.2502 69.8475 71.2502 68.125V26.875C71.2502 25.1525 69.8477 23.75 68.1252 23.75H21.8752Z" fill="#212529"/><path d="M27.5001 16.875H31.2501V28.125H27.5001V16.875Z" fill="#212529"/><path d="M58.7496 16.875H62.4996V28.125H58.7496V16.875Z" fill="#212529"/><path d="M44.9824 59.9971C39.4674 59.9971 34.9824 55.5121 34.9824 49.9971C34.9824 44.4821 39.4674 39.9971 44.9824 39.9971C50.4974 39.9971 54.9824 44.4821 54.9824 49.9971C54.9824 55.5121 50.4974 59.9971 44.9824 59.9971ZM44.9824 43.7471C41.5349 43.7471 38.7324 46.5496 38.7324 49.9971C38.7324 53.4446 41.5349 56.2471 44.9824 56.2471C48.4299 56.2471 51.2324 53.4446 51.2324 49.9971C51.2324 46.5496 48.4299 43.7471 44.9824 43.7471Z" fill="#212529"/><path d="M40.1876 69.9996C40.1651 69.9996 40.1451 69.9996 40.1251 69.9996C39.4401 69.9746 38.8201 69.5796 38.5101 68.9646L37.2876 66.5196L34.4926 66.6946C33.8076 66.7446 33.1426 66.3946 32.7776 65.8046C32.4126 65.2146 32.4076 64.4721 32.7576 63.8746L37.9151 55.0996L41.1476 56.9996L37.7751 62.7346L38.2876 62.6996C39.0301 62.6496 39.7451 63.0621 40.0826 63.7321L40.3176 64.2021L43.3776 59.0096L46.6101 60.9146L41.8026 69.0771C41.4651 69.6496 40.8501 69.9996 40.1876 69.9996Z" fill="#212529"/><path d="M49.7998 69.9998C49.1373 69.9998 48.5198 69.6498 48.1848 69.0773L42.2748 59.0048L45.5223 57.1248L49.6748 64.2148L49.9198 63.7298C50.2573 63.0598 50.9573 62.6598 51.7123 62.7023L52.2248 62.7373L48.8398 56.9723L52.0723 55.0723L57.2448 63.8748C57.5973 64.4723 57.5898 65.2148 57.2248 65.8048C56.8623 66.3948 56.2073 66.7448 55.5098 66.6948L52.7123 66.5198L51.4773 68.9673C51.1673 69.5798 50.5498 69.9723 49.8623 69.9973C49.8423 69.9998 49.8198 69.9998 49.7998 69.9998Z" fill="#212529"/><path d="M64.4576 35H73.1251V38.75H64.4576V35Z" fill="#212529"/><path d="M16.875 35H57.77V38.75H16.875V35Z" fill="#212529"/></svg>