<svg width="90" height="90" viewBox="0 0 90 90" fill="none" xmlns="http://www.w3.org/2000/svg"><path d="M20.9099 14.5346C16.3974 31.2271 4.64992 40.3521 2.47492 48.3971C0.299915 56.4422 0.357414 74.5846 37.3624 84.5896C74.3674 94.5947 85.9424 73.3372 88.3324 64.4872C99.5349 23.0571 28.9024 -15.0304 20.9099 14.5346Z" fill="#F0F2F5"/><path d="M55.633 23.7422V48.7422C55.633 52.4672 47.308 55.4922 36.9081 55.6172H36.2581C25.5581 55.6172 16.8831 52.5422 16.8831 48.7422V23.7422C16.8831 19.9422 25.5581 16.8672 36.2581 16.8672C46.958 16.8672 55.633 19.9422 55.633 23.7422Z" fill="#F3F7FD"/><path d="M22.5081 48.7422V23.7422C22.5081 20.2822 29.7081 17.4322 39.0706 16.9472C38.1506 16.8997 37.2156 16.8672 36.2581 16.8672C25.5581 16.8672 16.8831 19.9422 16.8831 23.7422V48.7422C16.8831 52.5422 25.5581 55.6172 36.2581 55.6172H36.9081C37.6656 55.6072 38.4056 55.5797 39.1381 55.5397C29.7431 55.0647 22.5081 52.2097 22.5081 48.7422Z" fill="#B4BCC8" fill-opacity=".5"/><path d="M55.0002 73.125C65.0104 73.125 73.1252 65.0102 73.1252 55C73.1252 44.9898 65.0104 36.875 55.0002 36.875C44.9901 36.875 36.8752 44.9898 36.8752 55C36.8752 65.0102 44.9901 73.125 55.0002 73.125Z" fill="#45A7F5"/><path d="M58.1088 62.0086L53.7338 57.6336C53.3813 57.2811 53.1838 56.8036 53.1838 56.3086V48.1836H56.9338V55.5311L60.7588 59.3561L58.1088 62.0086Z" fill="#212529"/><path d="M42.5002 55C42.5002 45.95 49.1427 38.47 57.8127 37.115C56.8927 36.9725 55.9602 36.875 55.0002 36.875C44.9902 36.875 36.8752 44.99 36.8752 55C36.8752 65.01 44.9902 73.125 55.0002 73.125C55.9602 73.125 56.8927 73.0275 57.8127 72.885C49.1427 71.53 42.5002 64.05 42.5002 55Z" fill="#000" fill-opacity=".15"/><path d="M75.3267 21.7041L77.0944 19.9363L80.63 23.4719L78.8622 25.2396L75.3267 21.7041Z" fill="#B4BCC8"/><path d="M65.1628 11.541L66.9306 9.77325L70.4661 13.3088L68.6984 15.0766L65.1628 11.541Z" fill="#B4BCC8"/><path d="M75.7698 13.3086L79.3053 9.77306L81.0731 11.5408L77.5375 15.0764L75.7698 13.3086Z" fill="#B4BCC8"/><path d="M65.6028 23.4707L69.1383 19.9352L70.9061 21.7029L67.3706 25.2385L65.6028 23.4707Z" fill="#B4BCC8"/><path d="M12.5002 61.249C10.4327 61.249 8.75024 59.5665 8.75024 57.499C8.75024 55.4315 10.4327 53.749 12.5002 53.749C14.5677 53.749 16.2502 55.4315 16.2502 57.499C16.2502 59.5665 14.5677 61.249 12.5002 61.249ZM12.5002 56.249C11.8102 56.249 11.2502 56.8115 11.2502 57.499C11.2502 58.1865 11.8102 58.749 12.5002 58.749C13.1902 58.749 13.7502 58.1865 13.7502 57.499C13.7502 56.8115 13.1902 56.249 12.5002 56.249Z" fill="#B4BCC8"/><path d="M36.2503 32.5C25.6902 32.5 15.0002 29.495 15.0002 23.75C15.0002 18.005 25.6902 15 36.2503 15C46.8103 15 57.5003 18.005 57.5003 23.75C57.5003 29.495 46.8103 32.5 36.2503 32.5ZM36.2503 18.75C24.9277 18.75 18.7502 22.0525 18.7502 23.75C18.7502 25.4475 24.9277 28.75 36.2503 28.75C47.5728 28.75 53.7503 25.4475 53.7503 23.75C53.7503 22.0525 47.5728 18.75 36.2503 18.75Z" fill="#212529"/><path d="M36.2502 45C25.6902 45 15.0002 41.995 15.0002 36.25H18.7502C18.7502 37.9475 24.9277 41.25 36.2502 41.25C37.9577 41.25 39.6927 41.1625 41.4102 40.9875L41.7902 44.7175C39.9477 44.905 38.0827 45 36.2502 45Z" fill="#212529"/><path d="M36.9002 57.5H36.2502C25.6902 57.5 15.0002 54.495 15.0002 48.75H18.7502C18.7502 50.4475 24.9277 53.75 36.2502 53.75H36.9002V57.5Z" fill="#212529"/><path d="M15.0002 23.75H18.7502V48.75H15.0002V23.75Z" fill="#212529"/><path d="M53.7502 23.75H57.5002V36.9025H53.7502V23.75Z" fill="#212529"/><path d="M55.0005 75C43.973 75 35.0005 66.0275 35.0005 55C35.0005 43.9725 43.973 35 55.0005 35C66.028 35 75.0005 43.9725 75.0005 55C75.0005 66.0275 66.028 75 55.0005 75ZM55.0005 38.75C46.0405 38.75 38.7505 46.04 38.7505 55C38.7505 63.96 46.0405 71.25 55.0005 71.25C63.9605 71.25 71.2505 63.96 71.2505 55C71.2505 46.04 63.9605 38.75 55.0005 38.75Z" fill="#212529"/></svg>