<svg width="116" height="70" viewBox="0 0 116 70" fill="none" xmlns="http://www.w3.org/2000/svg"><g filter="url(#filter0_d)"><path d="M37.7707 33.84C36.6762 33.84 35.8444 33.9314 35.2972 34.1143C34.75 34.32 34.0933 34.7314 33.3491 35.3714L33.0207 33.84H30V46H33.6336V38.0914L34.3122 37.5429C34.8594 37.1086 35.6037 36.88 36.5887 36.88H40.0691C41.2292 36.88 41.5794 37.2457 41.5794 38.4571V46H45.2349V37.8171C45.2349 34.9829 44.1186 33.84 41.4262 33.84H37.7707Z" fill="#fff"/><path d="M51.3587 32.6971V30H47.6375V32.6971H51.3587ZM51.3587 46V33.84H47.6375V46H51.3587Z" fill="#fff"/><path d="M53.6375 42.0229C53.6375 44.8571 54.7539 46 57.4463 46H64.7135C67.4059 46 68.5223 44.8571 68.5223 42.0229V40.8571H65.02V41.4514C65.02 42.6629 64.6478 43.0286 63.4877 43.0286H58.8034C57.6433 43.0286 57.2712 42.6629 57.2712 41.4514V38.3886C57.2712 37.1771 57.6433 36.8114 58.8034 36.8114H63.4877C64.6478 36.8114 65.02 37.1771 65.02 38.3886V38.8457H68.5223V37.8171C68.5223 34.9829 67.4059 33.84 64.7135 33.84H57.4463C54.7539 33.84 53.6375 34.9829 53.6375 37.8171V42.0229Z" fill="#fff"/><path d="M82.1913 46C84.8836 46 86 44.8571 86 42.0229V37.8171C86 34.9829 84.8836 33.84 82.1913 33.84H74.3549C71.6625 33.84 70.5462 34.9829 70.5462 37.8171V42.0229C70.5462 44.8571 71.6625 46 74.3549 46H82.1913ZM75.712 43.0286C74.5519 43.0286 74.1798 42.6629 74.1798 41.4514V38.3886C74.1798 37.1771 74.5519 36.8114 75.712 36.8114H80.8341C81.9943 36.8114 82.3664 37.1771 82.3664 38.3886V41.4514C82.3664 42.6629 81.9943 43.0286 80.8341 43.0286H75.712Z" fill="#fff"/></g><g filter="url(#filter1_d)"><path d="M89.5375 24C89.5375 24 89.5373 30.4625 83.075 30.4625C89.5376 30.4625 89.5375 36.925 89.5375 36.925C89.5375 36.925 89.5375 30.4625 96 30.4625C89.5375 30.4625 89.5375 24 89.5375 24Z" fill="#45A7F5"/></g><defs><filter id="filter0_d" x="0" y="0" width="116" height="76" filterUnits="userSpaceOnUse" color-interpolation-filters="sRGB"><feFlood flood-opacity="0" result="BackgroundImageFix"/><feColorMatrix in="SourceAlpha" type="matrix" values="0 0 0 0 0 0 0 0 0 0 0 0 0 0 0 0 0 0 127 0"/><feOffset/><feGaussianBlur stdDeviation="15"/><feColorMatrix type="matrix" values="0 0 0 0 0.0705882 0 0 0 0 0.243137 0 0 0 0 0.329412 0 0 0 1 0"/><feBlend mode="normal" in2="BackgroundImageFix" result="effect1_dropShadow"/><feBlend mode="normal" in="SourceGraphic" in2="effect1_dropShadow" result="shape"/></filter><filter id="filter1_d" x="73.075" y="14" width="32.925" height="32.925" filterUnits="userSpaceOnUse" color-interpolation-filters="sRGB"><feFlood flood-opacity="0" result="BackgroundImageFix"/><feColorMatrix in="SourceAlpha" type="matrix" values="0 0 0 0 0 0 0 0 0 0 0 0 0 0 0 0 0 0 127 0"/><feOffset/><feGaussianBlur stdDeviation="5"/><feColorMatrix type="matrix" values="0 0 0 0 0.270588 0 0 0 0 0.654902 0 0 0 0 0.960784 0 0 0 1 0"/><feBlend mode="normal" in2="BackgroundImageFix" result="effect1_dropShadow"/><feBlend mode="normal" in="SourceGraphic" in2="effect1_dropShadow" result="shape"/></filter></defs></svg>